<?xml version="1.0" encoding="utf-8"?>
<!-- Generator: Adobe Illustrator 24.0.0, SVG Export Plug-In . SVG Version: 6.00 Build 0)  -->
<svg version="1.1" id="Warstwa_3" xmlns="http://www.w3.org/2000/svg" xmlns:xlink="http://www.w3.org/1999/xlink" x="0px" y="0px"
	 viewBox="0 0 1920 1920" style="enable-background:new 0 0 1920 1920;" xml:space="preserve">
<style type="text/css">
	.st0{opacity:0.43;fill:#FFFFFF;enable-background:new    ;}
</style>
<path class="st0" d="M842.9,409.3c0.3,0.1,0.5,0.3,0.8,0.4c0,0-0.1,0-0.1-0.1c-1.1-0.6-2.1-1.1-3.2-1.7c0.1,0.2,0.2,0.5,0.4,0.7
	C841.5,408.7,842.2,408.9,842.9,409.3z"/>
<path d="M1898.1,665.6c-9.8-23.1-19.6-46.2-29.3-69.3c9.1,62.2,15.1,142.2,8,234.7c-7,90.6-24.6,167.3-42.7,226.7
	c-13.8,50.8-36.5,115-74.7,184c-13,23.6-45.2,79-98.7,141.4c-41.2,48-81.7,84.8-115.4,111.9c-19.3,14.2-38.6,28.4-57.9,42.7
	c7.1-34.7,14.2-69.3,21.3-104c-12.9,16.2-29.5,34.4-50.6,52.4c-13.8,11.8-27.2,21.6-39.6,29.8c-25.9,10.5-51.8,21-77.7,31.5
	c-30.8,3.6-61.6,7.1-92.4,10.7l-80.7-0.2c-25.5,5.3-44.4-1.5-47.3-11.4c-2.1-7.5,5.1-15.9,7.3-18.3c13.6-11.7,27.1-23.3,40.7-35
	c10.1-8.5,26-24.3,37.3-48.9c7.1-15.4,10.1-29.5,11.6-40c-11,7.2-25.9,15.5-44.4,22.2c-19.2,6.9-36.4,10.1-49.8,11.6h-68.5
	c-8.3-0.8-14.9-7.1-16-15.1c-1-7.3,2.9-14.6,9.7-18c35-38.2,70-76.3,104.9-114.5c13.3-18.7,26.7-37.3,40-56
	c6.9-11.9,14.4-27.4,20.4-46.2c5.5-17.1,8.2-32.6,9.7-45.3c-18,8-36.1,16-54.1,24c-19,2.7-37.9,5.3-56.9,8
	c-15.4,4.4-29.1-2.7-32-12.4c-2.5-8.4,3.8-16.7,4.8-17.9c9.4-12.7,20.2-26.1,32.5-39.8c14.3-15.9,28.4-29.8,41.7-41.8
	c15.1-20.7,30.3-41.5,45.4-62.2c9.6-16.8,19.2-33.6,28.7-50.4c4.9-17.4,9.6-40.5,10.4-67.9c0.7-23.3-1.6-43.5-4.5-59.6
	c-31.1,19.6-62.2,39.1-93.2,58.7c-7.6,4.2-13.2,3.1-15.1,2.7c-10.9-2.7-19.4-16.8-17.8-34.7c2-30.2,4.1-60.4,6.1-90.7
	c0-15.6-1.1-33.9-4.3-54.2c-2.9-17.8-6.9-33.6-11.2-47.1c-0.8-11.4,0.7-19.6,4.1-20.4c2.9-0.7,6.7,4.1,8.8,7.1
	c31.1,25.8,62.2,51.6,93.3,77.3c-0.9-15.2-4.3-39.8-17.7-66.7c-9.6-19.3-21.2-33.3-30.3-42.7c-11-21.8-25.9-47.2-46.1-73.8
	c-22.7-29.8-45.9-52.9-65.9-70.2c-23.3-23.1-53.6-49.3-91.5-74.7c0,0-35.7-24.9-97.9-53.3c-3.8-1.7-10.4-4.6-19.4-6.1
	c-2.6-0.4-8-1.2-26.4,0.2c-18.5,1.3-24.8,5.6-32,1.3c-4.2-2.5-6.6-6.4-8-9.3c-1.3-3.5-2.6-8.8-1.3-14.7c1.8-8.7,8.9-13.2,12-17.3
	c5.9-7.8,15-19.2,28.1-32.4c5.6-8.2,11.3-16.8,16.9-25.6c10-15.8,19.2-31.2,27.6-46.2c6.2-18.4,12.4-36.7,18.6-55.1
	c-25.6,20.3-47.7,37.1-64.8,49.8c-65.2,48.5-40.7,25.4-68.4,47.1c-9.8,7.7-25.3,20.2-48.9,24.9c-7.7,1.5-14.2,1.8-18.7,1.8
	c-3.4-3.3-6.8-6.7-10.3-10l-4.8-41.5c-3.6-26.7-7.2-53.3-10.8-80c-14.5,31.5-22.7,58-27.6,76.6c-4.7,17.8-5.4,25.2-10.6,36.3
	c-13.2,28.1-38.5,44.1-58.1,53.2c-23.9,17.5-47.8,35.1-71.7,52.6c-34.8,20.5-62.9,36.4-81,46.6c-5.2,2.9-13.4,7.4-24.7,8.5
	c-10.1,0.9-15.4-1.6-24.9-2.7c-8.7-1-21.3-0.9-37.3,4.4c-6.2,5.7-13.5,13.3-20.4,23.1c-9.3,13.1-14.8,25.7-18.1,35.3
	c-8.5,2.5-17,4.9-25.5,7.4c-7.5,3.4-18.1,9.4-28.4,19.6c-7.4,7.3-12.5,14.6-16,20.4c-1.3,2.8-3.9,7.5-8.9,11.6
	c-7.9,6.4-16.5,7-19.6,7.1c-7.6-1.4-15.6-2.6-24-3.6c-15.9-1.9-30.8-2.6-44.4-2.7c-8,3-16.1,5.9-24.1,8.9
	c-7.1,13.3-14.2,26.7-21.3,40c-4.9,2.1-9.7,4.2-14.6,6.3c-4.3,1.8-8.6,3.7-12.9,5.5c-0.9-0.7-9.7-7-20.4-3.8
	c-8.3,2.5-12.2,9.1-13.1,10.7v18.7c6.6,15.7,15.2,33.2,26.4,51.6c15.9,26,32.8,46.9,47.9,63.1v-58.7l16-21.3h40
	c4.5-4.1,9-8.3,13.4-12.4c5.1-2.6,14.1-8.2,21.3-18.7c4.4-6.3,6.7-12.4,8-16.9c9.7-2.7,19.5-5.3,29.2-8c9.3-1.1,28.3-2.1,49.9,6.2
	c19.3,7.5,31.8,19.1,38.1,25.8c-0.2,2.8-1.2,9.5-6.1,16c-5.5,7.2-12.6,9.9-15.2,10.7c-5.9-1.4-15.7-3-27.5-0.9
	c-17.5,3.1-29.1,12.5-33.9,16.9l-26.7,26.7l-16,58.7c8.9-7.1,17.8-14.2,26.7-21.3l17.7-16.1c3.9-3.5,7.8-7.1,11.7-10.6
	c2.4-3.6,8-10.9,17.9-16c10.6-5.5,20.4-5.6,24.8-5.3c3.3-0.7,10.8-2,19.7,0.9c10,3.2,15.6,9.8,17.7,12.4c-5.3,2.1-13.4,6-21.2,13.3
	c-11.2,10.5-15.9,22.4-17.8,28.4c-7.4,13-14.8,26.1-22.2,39.1c-15.2,11.3-26.3,12.6-33.8,11.6c-5.6-0.8-10.4-3.1-24.9-6.2
	c-6-1.3-11-2.1-14.2-2.7c-1.7,2.9-4.8,8.8-5.3,16.9c-0.6,8.7,2,15.4,3.5,18.4c5.3,7.5,12.3,16.3,21.4,25.1
	c10.1,9.8,20.1,17,28.4,22.2c9.3,3,18.6,5.9,27.9,8.9c5.9-0.5,19.5-2.3,32-12.4c6-4.9,9.9-10.1,12.4-14.2
	c3.4-5.8,8.4-14.5,14.8-24.8c7.9-12.8,12.8-14.3,17.7-27.6c3.3-8.9,10-23.3,23.2-37.3c12-12.8,24.5-20,32.8-24
	c7.3-7.4,19.9-18.4,38.3-26.7c16.7-7.5,31.7-9.9,41.7-10.7c10.8-3,26.5-6,45.4-5.3c21.9,0.8,39.4,6.2,50.6,10.7
	c17.8,9.8,35.6,19.6,53.3,29.3c5,2.9,13.6,7.2,25,8.9c11,1.7,20.1,0.4,25.7-0.9c9.9,0,24.1-1.1,40.1-6.2
	c13.6-4.3,24.3-10.2,31.9-15.1c13.1-9.5,26.1-19,39.2-28.4c5.2-0.3,12.3-0.1,20.4,1.8c7,1.6,12.7,4.1,16.9,6.2
	c2.1,7.4,4.1,14.8,6.2,22.2c-1.7,6-4.8,14-10.7,22.2c-11.8,16.5-27.5,23.8-34.8,26.6c-48,16.5-96,33-144,49.5
	c16.7-0.1,50.7,2.3,83.7,24.2c12.1,8.1,21.4,17,28.3,24.9c-34.7,15.1-69.3,30.2-104,45.3c17.5,1.3,44.1,5.4,73,19.6
	c17.7,8.7,31.5,18.7,41.7,27.4c-40,13.1-79.9,26.1-119.9,39.2c43.5,5.9,87,11.9,130.6,17.8L602,1073.9c16.1-1.4,43.1-1.7,73.9,8.9
	c21.5,7.4,37.8,17.6,48.8,25.8c-31.3,7.9-65.3,18-101.2,31.1c-31.1,11.3-59.6,23.4-85.4,35.6c15.3,8.6,28.3,14.2,37.4,17.8
	c17.9,7,28.3,9.1,42.5,18c9.9,6.2,17,12.9,21.4,17.5c-1.2,8.6-2.3,17.2-3.5,25.8c-7.7,6.5-15.5,13-23.2,19.6c0,0-77.3-13.3-88-18.7
	c-10.3-5.1-20-8.2-20-8.2c-16.9-7.6-21.6-11.4-28.8-14c-9.2-3.3-23.3-5.2-44.4,2.7c-24.4,20.3-48.8,40.6-73.2,60.8
	c-6,3.6-14.9,8.9-25.5,15.6c-18.9,12-28.3,18-32.9,22.2c-5.2,4.9-22.6,24.4-4.5,88.9c14.2,25.8,28.4,51.6,42.7,77.3
	c-1-8-2.3-27.4,8-48c6.6-13.3,15.5-21.9,21.3-26.7c0.4,24.3,2.5,58.5,10.7,98.7c4.9,24.4,9.5,47,21.4,73.8
	c9.3,21,27.1,53.5,61.2,86.2l92.5,83.6c33.2,21,66.3,42.1,99.5,63.1c-2.8-10.4-5.5-21.6-7.8-33.5c-2.9-14.5-4.9-28.3-6.3-41.1
	c-4.7-14.1-1.3-27.5,7.1-32.9c1.7-1.1,5.5-3,11.6-2.7c30.2,22.8,60.4,45.6,90.7,68.4c38.2,16.3,76.4,32.6,114.7,48.9
	c12.1,5.8,28,12.6,47.1,18.7c11.1,3.5,34.7,10.4,65.8,14.2c15.1,1.9,34.1,3.3,56,2.7c16.4-0.2,36.4-2,58.7-7.1
	c15.2-3.5,28.6-7.9,40-12.4c-11.7-9.5-23.6-19-35.6-28.4c-5.6-4.5-11.3-8.9-16.9-13.3c-10.6-3.8-15.7-15.1-12.4-24
	c2.6-7,10.2-11.9,18.7-11.6c34.5-5.7,84.9-14.5,145.8-26.7c93-18.7,140.4-28.4,188.3-47.1c36.4-14.2,89-38.9,147.6-82.6
	c23.3-15.7,49.2-35.6,75.7-60.5c17.7-16.7,33-33.3,46.1-48.9c26.7-35,54.6-74.9,81.9-120c23.1-38.2,42.8-74.9,59.5-109.3
	c15.5-32.5,30.9-68.4,45.4-107.6c12.7-34.2,23.2-67,31.9-97.8c9.5-29.7,18.7-66.8,23.5-109.9c3.9-35,4.1-66.5,2.7-93.3
	c-0.3-32.9-3-71.7-10.7-114.7C1915.3,723.3,1906.9,692.3,1898.1,665.6z M397.7,478c-4,1.7-2.9,1.7-9.2,4.7c-9.1,4.3-8.4,3-11.5,5.1
	c-1.8,1.2-4.6,4-10.1,9.6c-2.4,2.4-3.6,3.6-4.6,4.7c-5.3,5.8-5.7,7.5-9.4,10.5c-1.6,1.3-3.6,2.8-6.7,3.9c-1.3,0.4-4.3,1.3-9.8,0.9
	c-3.4-0.3-5.1-0.8-13.3-3.3c-10.5-3.1-9.7-2.7-14.2-4.1c-4.7-1.5-8.8-2.9-12.3-4.2c-1.1-0.3-1.9-0.8-2.6-1.6
	c-1.7-1.1-3.5-2.4-4.9-3.9c-1.1-1.2,0.2-2.9,1.4-2.6c0.1-0.4,0.4-0.7,1-0.8c0.8-0.1,1.6-0.3,2.4-0.4c0.9-1,2.2-1.6,3.9-1.6
	c1.3,0,2.5,0.1,3.8,0.2c3-0.5,6.1-1.1,9.1-1.7c0.8-0.6,1.8-0.9,3.1-0.9h1.3c5-0.8,11.5-2.4,18.7-5.8c2.9-1.3,9-4.5,15.6-10.1
	c4.9-4.1,8.5-8.2,11-11.6c1.4-1.4,7.3-7,15.7-6.5c2.5,0.1,4.6,0.8,6.2,1.5c1.8,0.4,3.8,1,5.9,1.9c0.6,0.3,1.2,0.5,1.8,0.8
	c2,0.1,3.8,1.4,4.7,3.2c1,0.9,2.7,2.4,4.9,4.1c3.3,2.5,4.7,3.1,4.6,4.1C404.2,475.7,401.8,476.3,397.7,478z M966.3,480.1
	c-0.4,0.9-6.9-1.1-11.4-3.1c-2.3-1-4.1-1.9-5.3-2.6c-1.2-0.6-3.1-1.6-5.5-2.7c-4.2-1.8-7.1-2.5-11.6-3.9c-2.4-0.7-6-1.9-10.4-3.6
	c-5.7-2.7-11.2-5.2-11.4-4.8c-0.1,0.2,1.9,1.6,1.9,1.6s-0.4-0.3-1.9-1.6c-2.2-0.8-4.5-1.6-6.8-2.3c-0.1,0-0.3-0.1-0.4-0.2
	c-0.3-0.1-0.5-0.2-0.8-0.2c-9.5-2.9-18.8-6.7-28.2-10.1c-0.6-0.2-1.2-0.4-1.7-0.6c-4.6-1.3-9.1-2.6-13.6-4.3
	c-2.2-0.8-4.5-1.8-6.7-2.8c-2.9-1-5.7-1.9-8.6-2.9c-6.9-2.3-13.8-4.4-20.7-6.5c-4.5-1.2-11.4-3-19.7-5.6c-11.4-3.4-11.9-4-20.3-6.5
	c-9-2.6-16-4.2-29-7.1c-6.3-1.4-11.5-2.5-15.1-3.3c-2.1,0-4.6-0.1-7.4-0.6c-1.8-0.3-3.3-0.7-4.7-1.2c-2.3-0.2-4.8-0.4-7.4-0.9
	c-3.7-0.6-7.1-1.5-10.1-2.4c-3.7,0.6-9.2,1-15.6-0.2c-3.9-0.7-10.4-2.4-12.9-4.3c-0.3-0.2-1.4-1.1-3.1-1.7c-1-0.4-2-0.5-2.5-0.6
	c-0.7,0-1.7-0.2-1.8-0.6c-0.4-1.3,6.1-4.3,8.3-5.3c25.3-11.7,53.1-13.4,53.1-13.4c9.5-0.6,19.1-0.4,28.5,0.8
	c9.5,1.2,18.8,3.6,28,6.6c20.3,6.8,40.1,15.6,58.6,26.3c2,1.2,4,2.3,6,3.5c0.4,0.1,0.7,0.2,1,0.4c0.7,0.2,1.3,0.6,1.8,1.1
	c0.1,0.1,0.2,0.2,0.3,0.3c6.9,4.2,13.8,8.5,20.6,12.8c8.7,5.3,17.4,10.7,26.1,15.9c0.4-0.2,0.9-0.3,1.4,0c6,2.7,11.1,7,17.1,9.7l0,0
	c1.8,0,3.1,0.8,4,1.9c4.4,2.2,8.7,4.7,12.4,7.9c0.2,0.1,0.3,0.3,0.3,0.4c3.5,1.7,6.7,4.1,9.9,6.3c2.7,1.2,6.5,3.1,10.8,6.1
	C964.1,477.7,966.6,479.5,966.3,480.1z"/>
<path d="M955.2,59.7c-0.2-4.3,94.1-23.4,203.7-8c34.7,4.8,109.2,16,189.3,61.3c30.4,17.2,53.2,34.6,98.7,69.3
	c41.9,32,67.7,51.7,98.7,82.7c58.3,58.3,90.3,113.4,98.7,128c33.8,59.1,48.8,109.4,53.3,125.3c16.2,57.2,18.7,102.5,20.5,139.6
	c2.7,55-1.7,90.9-4.4,108.4c-5.3,34.9-14.8,71.7-18.7,71.1c-4.3-0.6,3.7-46.4-1.8-112c-0.5-6.5-3.9-45.3-15.1-90.7
	c-19.2-77.7-50.9-132.7-71.1-167.1c-45.1-76.9-92.6-126.4-122.7-157.3c-65.7-67.6-125.1-108-160-131.6
	c-52.7-35.5-86.6-51.4-98.7-56.9c-42.9-19.5-78.5-29.4-99.4-35.2c-41.9-11.5-76.8-17.1-97.9-20C979.1,60.1,955.3,62,955.2,59.7z"/>
<path d="M1318.9,344.1c3.2-3.9,106.2,49.3,184,150.2c74.1,96.1,97.3,192.8,109.3,245.3c12.7,55.5,38,172.7,0,314.7
	c-27.4,102.5-75.3,171-90.7,192c-50.7,69.3-104.4,108.8-149.3,141.3c-58.1,42.1-121.3,75.1-125.3,69.3c-3.5-5,40-34.1,95.1-92.4
	c60.6-64.1,96.8-122.8,109.3-144c53.6-90.5,75-169.7,80.9-192.9c25.1-98.6,22.4-177.3,21.4-197.3c-1.1-22.7-6.6-113.3-50.1-220
	c-24.2-59.5-51.8-103.3-66.3-124.9c-5.5-8.2-33.9-50.2-79.1-99.6C1331.2,356.5,1317.7,345.6,1318.9,344.1z"/>
</svg>
